<?xml version="1.0" encoding="UTF-8"?><svg id="Lag_1" xmlns="http://www.w3.org/2000/svg" width="532" height="513.5" viewBox="0 0 532 513.5"><defs><style>.cls-1{fill:#ccc;}.cls-2{fill:#0071bc;}.cls-3{fill:#666;stroke:#666;stroke-miterlimit:10;stroke-width:2px;}.cls-4,.cls-5{fill:#b3b3b3;}.cls-5{opacity:.5;}.cls-6{fill:#333;}</style></defs><path class="cls-4" d="M119.97,371.55S163.44-22.72,355.51,7.3c0,0,94.01,12.01,154.67,124.09,60.65,112.08-27.18,177.08-27.18,177.08,0,0-77.79,62.57-202.22,73.33l-127.46,22.77-33.36-33.02Z"/><path class="cls-5" d="M388.98,292.99l-29.87,8.55c-14.32,4.1-29.42-4.15-33.56-18.32h0c-4.14-14.17,4.19-29.12,18.51-33.22l29.87-8.55c14.32-4.1,29.42,4.15,33.56,18.32h0c4.14,14.17-4.19,29.12-18.51,33.22Z"/><path class="cls-5" d="M408.53,210.55l-115.13,32.95c-14.32,4.1-29.42-4.15-33.56-18.32h0c-4.14-14.17,4.19-29.12,18.51-33.22l115.13-32.95c14.32-4.1,29.42,4.15,33.56,18.32h0c4.14,14.17-4.19,29.12-18.51,33.22Z"/><path class="cls-5" d="M364.03,139.88l-104.4,29.88c-14.32,4.1-29.42-4.15-33.56-18.32h0c-4.14-14.17,4.19-29.12,18.51-33.22l104.4-29.88c14.32-4.1,29.42,4.15,33.56,18.32h0c4.14,14.17-4.19,29.12-18.51,33.22Z"/><polygon class="cls-4" points="5.74 471.62 21.91 454.61 36.07 450.61 119.97 371.55 153.33 404.58 67.4 486.63 66.39 495.64 47.19 513.65 5.74 471.62"/><path class="cls-4" d="M191.72,308.8l-28.63,9.06c-2.29.72-4.05,2.56-4.65,4.86l-13.28,50.38c-.57,2.17-.05,4.48,1.4,6.2h0c1.68,2,4.36,2.9,6.93,2.33l50.8-11.27c2.28-.51,4.16-2.1,5.01-4.26l11.14-28.35c1.01-2.57.39-5.48-1.58-7.43l-20.02-19.82c-1.86-1.84-4.6-2.5-7.1-1.71Z"/><path class="cls-4" d="M172.15,270.64c-1.02.42-1.85,1.19-2.37,2.16-1.98,3.69-7.32,14.5-7.42,23.91-.01,1.38.91,2.6,2.24,2.99,2.91.85,8.97.58,19.69-8.18,1.54-1.26,2.35-3.19,2.11-5.15-.74-6.08-5.17-19.52-14.26-15.74Z"/><path class="cls-4" d="M255.43,357.84c-.46,1-1.24,1.8-2.19,2.27-3.62,1.8-14.18,6.58-23.11,6.16-1.31-.06-2.41-1.06-2.7-2.43-.63-2.98,0-9.1,8.95-19.43,1.28-1.48,3.17-2.2,5.01-1.85,5.72,1.09,18.18,6.31,14.05,15.28Z"/><ellipse class="cls-4" cx="284.75" cy="70.35" rx="7.58" ry="7.51"/><ellipse class="cls-4" cx="264.53" cy="89.36" rx="7.58" ry="7.51"/><ellipse class="cls-4" cx="245.83" cy="106.87" rx="7.58" ry="7.51"/><ellipse class="cls-4" cx="225.11" cy="125.38" rx="7.58" ry="7.51"/><ellipse class="cls-4" cx="226.12" cy="203.44" rx="7.58" ry="7.51"/><ellipse class="cls-4" cx="225.11" cy="165.41" rx="7.58" ry="7.51"/><ellipse class="cls-4" cx="245.32" cy="146.4" rx="7.58" ry="7.51"/><ellipse class="cls-4" cx="324.18" cy="72.35" rx="7.58" ry="7.51"/><ellipse class="cls-4" cx="303.96" cy="90.36" rx="7.58" ry="7.51"/><ellipse class="cls-4" cx="284.75" cy="109.37" rx="7.58" ry="7.51"/><ellipse class="cls-4" cx="265.54" cy="127.39" rx="7.58" ry="7.51"/><ellipse class="cls-4" cx="343.38" cy="91.36" rx="7.58" ry="7.51"/><ellipse class="cls-4" cx="324.18" cy="111.38" rx="7.58" ry="7.51"/><ellipse class="cls-4" cx="303.96" cy="129.39" rx="7.58" ry="7.51"/><ellipse class="cls-4" cx="284.75" cy="148.4" rx="7.58" ry="7.51"/><ellipse class="cls-4" cx="265.54" cy="166.41" rx="7.58" ry="7.51"/><ellipse class="cls-4" cx="246.34" cy="185.43" rx="7.58" ry="7.51"/><ellipse class="cls-4" cx="362.59" cy="72.35" rx="7.58" ry="7.51"/><ellipse class="cls-4" cx="247.35" cy="224.45" rx="7.58" ry="7.51"/><ellipse class="cls-4" cx="364.61" cy="112.38" rx="7.58" ry="7.51"/><ellipse class="cls-4" cx="345.4" cy="132.39" rx="7.58" ry="7.51"/><ellipse class="cls-4" cx="325.19" cy="150.4" rx="7.58" ry="7.51"/><ellipse class="cls-4" cx="305.98" cy="169.42" rx="7.58" ry="7.51"/><ellipse class="cls-4" cx="286.77" cy="187.43" rx="7.58" ry="7.51"/><ellipse class="cls-4" cx="267.56" cy="206.44" rx="7.58" ry="7.51"/><ellipse class="cls-4" cx="383.82" cy="93.36" rx="7.58" ry="7.51"/><ellipse class="cls-4" cx="266.55" cy="245.47" rx="7.58" ry="7.51"/><ellipse class="cls-4" cx="383.82" cy="133.39" rx="7.58" ry="7.51"/><ellipse class="cls-4" cx="364.61" cy="153.4" rx="7.58" ry="7.51"/><ellipse class="cls-4" cx="344.39" cy="171.42" rx="7.58" ry="7.51"/><ellipse class="cls-4" cx="325.19" cy="190.43" rx="7.58" ry="7.51"/><ellipse class="cls-4" cx="305.98" cy="208.44" rx="7.58" ry="7.51"/><ellipse class="cls-4" cx="286.77" cy="227.46" rx="7.58" ry="7.51"/><ellipse class="cls-4" cx="403.03" cy="114.38" rx="7.58" ry="7.51"/><ellipse class="cls-4" cx="286.77" cy="266.48" rx="7.58" ry="7.51"/><ellipse class="cls-4" cx="404.04" cy="154.4" rx="7.58" ry="7.51"/><ellipse class="cls-4" cx="384.83" cy="174.42" rx="7.58" ry="7.51"/><ellipse class="cls-4" cx="364.61" cy="192.43" rx="7.58" ry="7.51"/><ellipse class="cls-4" cx="345.4" cy="211.44" rx="7.58" ry="7.51"/><ellipse class="cls-4" cx="326.2" cy="229.46" rx="7.58" ry="7.51"/><ellipse class="cls-4" cx="306.99" cy="248.47" rx="7.58" ry="7.51"/><ellipse class="cls-4" cx="423.24" cy="135.39" rx="7.58" ry="7.51"/><ellipse class="cls-4" cx="305.98" cy="287.5" rx="7.58" ry="7.51"/><ellipse class="cls-4" cx="423.24" cy="175.42" rx="7.58" ry="7.51"/><ellipse class="cls-4" cx="404.04" cy="195.43" rx="7.58" ry="7.51"/><ellipse class="cls-4" cx="383.82" cy="213.45" rx="7.58" ry="7.51"/><ellipse class="cls-4" cx="364.61" cy="232.46" rx="7.58" ry="7.51"/><ellipse class="cls-4" cx="345.4" cy="250.47" rx="7.58" ry="7.51"/><ellipse class="cls-4" cx="326.2" cy="269.48" rx="7.58" ry="7.51"/><ellipse class="cls-4" cx="442.45" cy="156.41" rx="7.58" ry="7.51"/><ellipse class="cls-4" cx="327.21" cy="308.51" rx="7.58" ry="7.51"/><ellipse class="cls-4" cx="444.47" cy="196.43" rx="7.58" ry="7.51"/><ellipse class="cls-4" cx="425.27" cy="216.45" rx="7.58" ry="7.51"/><ellipse class="cls-4" cx="405.05" cy="234.46" rx="7.58" ry="7.51"/><ellipse class="cls-4" cx="385.84" cy="253.47" rx="7.58" ry="7.51"/><ellipse class="cls-4" cx="366.63" cy="271.49" rx="7.58" ry="7.51"/><ellipse class="cls-4" cx="347.43" cy="290.5" rx="7.58" ry="7.51"/><ellipse class="cls-4" cx="463.68" cy="177.42" rx="7.58" ry="7.51"/><ellipse class="cls-4" cx="365.62" cy="309.51" rx="7.58" ry="7.51"/><ellipse class="cls-4" cx="385.84" cy="290.5" rx="7.58" ry="7.51"/><ellipse class="cls-4" cx="464.69" cy="216.45" rx="7.58" ry="7.51"/><ellipse class="cls-4" cx="444.47" cy="234.46" rx="7.58" ry="7.51"/><ellipse class="cls-4" cx="425.27" cy="253.47" rx="7.58" ry="7.51"/><ellipse class="cls-4" cx="406.06" cy="271.49" rx="7.58" ry="7.51"/><ellipse class="cls-4" cx="464.59" cy="255.63" rx="7.58" ry="7.51"/><ellipse class="cls-4" cx="444.37" cy="274.64" rx="7.58" ry="7.51"/><ellipse class="cls-4" cx="425.67" cy="292.15" rx="7.58" ry="7.51"/><ellipse class="cls-4" cx="404.95" cy="310.66" rx="7.58" ry="7.51"/><path class="cls-2" d="M113.04,366.17S156.04-27.83,346.04,2.17c0,0,93,12,153,124s-26.88,176.96-26.88,176.96c0,0-76.95,62.52-200.03,73.28l-126.08,22.76-33-33Z"/><rect class="cls-5" x="314.73" y="239.37" width="84.38" height="53.62" rx="26.81" ry="26.81" transform="translate(-59.89 109.6) rotate(-16.13)"/><rect class="cls-5" x="248.01" y="169.18" width="172.17" height="53.62" rx="26.81" ry="26.81" transform="translate(-41.29 100.5) rotate(-16.13)"/><rect class="cls-5" x="214.81" y="97.03" width="161.12" height="53.62" rx="26.81" ry="26.81" transform="translate(-22.77 86.91) rotate(-16.13)"/><polygon class="cls-1" points=".04 466.17 16.04 449.17 30.04 445.17 113.04 366.17 146.04 399.17 61.04 481.17 60.04 490.17 41.04 508.17 .04 466.17"/><path class="cls-1" d="M184.01,303.46l-28.33,9.05c-2.27.72-4,2.56-4.6,4.86l-13.14,50.35c-.57,2.17-.05,4.48,1.38,6.2h0c1.67,2,4.31,2.9,6.85,2.33l50.25-11.26c2.26-.51,4.11-2.1,4.95-4.26l11.02-28.33c1-2.57.39-5.48-1.56-7.43l-19.81-19.81c-1.84-1.84-4.55-2.49-7.02-1.7Z"/><path class="cls-1" d="M164.66,265.33c-1.01.42-1.83,1.19-2.34,2.16-1.96,3.69-7.24,14.49-7.34,23.89-.01,1.38.9,2.6,2.22,2.99,2.88.85,8.88.58,19.48-8.17,1.52-1.26,2.33-3.19,2.09-5.14-.73-6.08-5.12-19.5-14.11-15.72Z"/><path class="cls-1" d="M247.03,352.47c-.46,1-1.23,1.8-2.17,2.27-3.58,1.8-14.03,6.58-22.86,6.16-1.29-.06-2.38-1.06-2.67-2.43-.63-2.98,0-9.09,8.85-19.42,1.27-1.48,3.13-2.2,4.95-1.85,5.66,1.09,17.98,6.31,13.89,15.27Z"/><circle class="cls-6" cx="276.04" cy="65.17" r="7.5"/><circle class="cls-6" cx="256.04" cy="84.17" r="7.5"/><circle class="cls-6" cx="237.54" cy="101.67" r="7.5"/><circle class="cls-6" cx="217.04" cy="120.17" r="7.5"/><circle class="cls-6" cx="218.04" cy="198.17" r="7.5"/><circle class="cls-6" cx="217.04" cy="160.17" r="7.5"/><circle class="cls-6" cx="237.04" cy="141.17" r="7.5"/><circle class="cls-6" cx="315.04" cy="67.17" r="7.5"/><circle class="cls-6" cx="295.04" cy="85.17" r="7.5"/><circle class="cls-6" cx="276.04" cy="104.17" r="7.5"/><circle class="cls-6" cx="257.04" cy="122.17" r="7.5"/><circle class="cls-6" cx="334.04" cy="86.17" r="7.5"/><circle class="cls-6" cx="315.04" cy="106.17" r="7.5"/><circle class="cls-6" cx="295.04" cy="124.17" r="7.5"/><circle class="cls-6" cx="276.04" cy="143.17" r="7.5"/><circle class="cls-6" cx="257.04" cy="161.17" r="7.5"/><circle class="cls-6" cx="238.04" cy="180.17" r="7.5"/><circle class="cls-6" cx="353.04" cy="67.17" r="7.5"/><circle class="cls-6" cx="239.04" cy="219.17" r="7.5"/><circle class="cls-6" cx="355.04" cy="107.17" r="7.5"/><circle class="cls-6" cx="336.04" cy="127.17" r="7.5"/><circle class="cls-6" cx="316.04" cy="145.17" r="7.5"/><circle class="cls-6" cx="297.04" cy="164.17" r="7.5"/><circle class="cls-6" cx="278.04" cy="182.17" r="7.5"/><circle class="cls-6" cx="259.04" cy="201.17" r="7.5"/><circle class="cls-6" cx="374.04" cy="88.17" r="7.5"/><circle class="cls-6" cx="258.04" cy="240.17" r="7.5"/><circle class="cls-6" cx="374.04" cy="128.17" r="7.5"/><circle class="cls-6" cx="355.04" cy="148.17" r="7.5"/><circle class="cls-6" cx="335.04" cy="166.17" r="7.5"/><circle class="cls-6" cx="316.04" cy="185.17" r="7.5"/><circle class="cls-6" cx="297.04" cy="203.17" r="7.5"/><circle class="cls-6" cx="278.04" cy="222.17" r="7.5"/><circle class="cls-6" cx="393.04" cy="109.17" r="7.5"/><circle class="cls-6" cx="278.04" cy="261.17" r="7.5"/><circle class="cls-6" cx="394.04" cy="149.17" r="7.5"/><circle class="cls-6" cx="375.04" cy="169.17" r="7.5"/><circle class="cls-6" cx="355.04" cy="187.17" r="7.5"/><circle class="cls-6" cx="336.04" cy="206.17" r="7.5"/><circle class="cls-6" cx="317.04" cy="224.17" r="7.5"/><circle class="cls-6" cx="298.04" cy="243.17" r="7.5"/><circle class="cls-6" cx="413.04" cy="130.17" r="7.5"/><circle class="cls-6" cx="297.04" cy="282.17" r="7.5"/><circle class="cls-6" cx="413.04" cy="170.17" r="7.5"/><circle class="cls-6" cx="394.04" cy="190.17" r="7.5"/><circle class="cls-6" cx="374.04" cy="208.17" r="7.5"/><circle class="cls-6" cx="355.04" cy="227.17" r="7.5"/><circle class="cls-6" cx="336.04" cy="245.17" r="7.5"/><circle class="cls-6" cx="317.04" cy="264.17" r="7.5"/><circle class="cls-6" cx="432.04" cy="151.17" r="7.5"/><circle class="cls-6" cx="318.04" cy="303.17" r="7.5"/><circle class="cls-6" cx="434.04" cy="191.17" r="7.5"/><circle class="cls-6" cx="415.04" cy="211.17" r="7.5"/><circle class="cls-6" cx="395.04" cy="229.17" r="7.5"/><circle class="cls-6" cx="376.04" cy="248.17" r="7.5"/><circle class="cls-6" cx="357.04" cy="266.17" r="7.5"/><circle class="cls-6" cx="338.04" cy="285.17" r="7.5"/><circle class="cls-6" cx="453.04" cy="172.17" r="7.5"/><circle class="cls-6" cx="356.04" cy="304.17" r="7.5"/><circle class="cls-6" cx="376.04" cy="285.17" r="7.5"/><circle class="cls-6" cx="454.04" cy="211.17" r="7.5"/><circle class="cls-6" cx="434.04" cy="229.17" r="7.5"/><circle class="cls-6" cx="415.04" cy="248.17" r="7.5"/><circle class="cls-6" cx="396.04" cy="266.17" r="7.5"/><circle class="cls-6" cx="453.94" cy="250.33" r="7.5"/><circle class="cls-6" cx="433.94" cy="269.33" r="7.5"/><circle class="cls-6" cx="415.44" cy="286.83" r="7.5"/><circle class="cls-6" cx="394.94" cy="305.33" r="7.5"/><line class="cls-3" x1="89.54" y1="388.67" x2="140.54" y2="404.67"/><line class="cls-3" x1="72.07" y1="405.81" x2="123.07" y2="421.81"/><line class="cls-3" x1="54.07" y1="422.81" x2="105.07" y2="438.81"/><line class="cls-3" x1="36.07" y1="439.81" x2="87.07" y2="455.81"/></svg>